<?xml version="1.0" standalone="no"?>
<!DOCTYPE svg PUBLIC "-//W3C//DTD SVG 20010904//EN"
 "http://www.w3.org/TR/2001/REC-SVG-20010904/DTD/svg10.dtd">
<svg version="1.0" xmlns="http://www.w3.org/2000/svg"
 width="277.000000pt" height="287.000000pt" viewBox="0 0 277.000000 287.000000"
 preserveAspectRatio="xMidYMid meet">

<g transform="translate(0.000000,287.000000) scale(0.100000,-0.100000)"
fill="#000000" stroke="none">
<path d="M1194 2811 c-11 -5 -36 -27 -55 -50 -40 -45 -160 -252 -163 -277 0
-9 10 -24 24 -34 70 -49 603 -351 613 -347 23 9 187 309 187 341 0 150 -289
364 -505 373 -44 1 -89 -1 -101 -6z"/>
<path d="M917 2378 c-35 -47 -102 -161 -507 -862 l-363 -628 7 -166 c9 -190
21 -309 36 -327 5 -6 47 -31 93 -55 l84 -44 84 37 c46 21 145 70 219 111 l135
73 43 74 c37 62 381 657 739 1278 46 79 83 152 83 162 0 9 -21 30 -47 47 -54
34 -573 332 -578 332 -2 0 -15 -15 -28 -32z m99 -99 c19 -11 34 -25 34 -31 0
-5 -110 -199 -244 -431 -133 -232 -296 -514 -361 -627 -142 -247 -189 -318
-220 -332 -29 -13 -75 -3 -75 17 0 25 46 109 280 515 123 212 284 491 358 620
149 259 168 290 184 290 6 0 26 -9 44 -21z m205 -119 c38 -22 71 -45 74 -50 5
-8 -702 -1245 -772 -1351 -29 -43 -51 -54 -97 -45 -62 12 -103 80 -81 133 7
16 157 279 333 584 176 305 328 570 340 589 11 19 38 68 61 108 25 43 48 72
58 72 9 0 47 -18 84 -40z m198 -114 c62 -33 77 -1 -285 -627 -448 -776 -473
-819 -490 -826 -22 -8 -54 26 -54 57 0 45 26 105 104 238 40 70 116 201 168
292 53 91 171 296 263 455 93 160 186 320 207 358 21 37 43 67 49 67 5 0 22
-6 38 -14z m-1205 -1276 c37 0 43 -4 60 -34 28 -53 95 -95 163 -104 51 -6 60
-11 81 -42 39 -58 31 -68 -108 -132 -69 -32 -136 -57 -149 -58 -13 0 -43 11
-66 25 -39 22 -43 28 -48 77 -4 29 -7 104 -7 167 0 99 2 112 16 107 9 -3 34
-6 58 -6z"/>
<path d="M87 332 c-10 -14 6 -104 18 -109 7 -2 34 6 60 20 l48 24 -29 20 c-45
32 -92 54 -97 45z"/>
<path d="M245 151 c-21 -4 -30 -12 -30 -26 0 -17 9 -21 60 -26 33 -4 568 -7
1188 -8 l1128 -1 -3 33 -3 32 -1155 1 c-635 1 -1168 -1 -1185 -5z"/>
</g>
</svg>
